<?xml version="1.0" encoding="UTF-8" standalone="no"?>
<svg xmlns="http://www.w3.org/2000/svg" width="75.320129mm" height="92.604164mm" viewBox="0 0 75.320129 92.604164">
    <!-- @see https://de.wikipedia.org/wiki/Portable_Document_Format#/media/Datei:PDF_file_icon.svg -->
    <g transform="translate(53.548057 -183.975276) scale(1.4843)">
        <path fill="$$COLOR" d="M-29.632812 123.94727c-3.551967 0-6.44336 2.89347-6.44336 6.44531v49.49804c0 3.55185 2.891393 6.44532 6.44336 6.44532H8.2167969c3.5519661 0 6.4433591-2.89335 6.4433591-6.44532v-40.70117s.101353-1.19181-.416015-2.35156c-.484969-1.08711-1.275391-1.84375-1.275391-1.84375a1.0584391 1.0584391 0 0 0-.0059-.008l-9.3906254-9.21094a1.0584391 1.0584391 0 0 0-.015625-.0156s-.8017392-.76344-1.9902344-1.27344c-1.39939552-.6005-2.8417968-.53711-2.8417968-.53711l.021484-.002z" color="#000" font-family="sans-serif" overflow="visible" paint-order="markers fill stroke" style="line-height:normal;font-variant-ligatures:normal;font-variant-position:normal;font-variant-caps:normal;font-variant-numeric:normal;font-variant-alternates:normal;font-feature-settings:normal;text-indent:0;text-align:start;text-decoration-line:none;text-decoration-style:solid;text-decoration-color:#000000;text-transform:none;text-orientation:mixed;white-space:normal;shape-padding:0;isolation:auto;mix-blend-mode:normal;solid-color:#000000;solid-opacity:1"/>
        <path fill="#f5f5f5" d="M-29.632812 126.06445h28.3789058a1.0584391 1.0584391 0 0 0 .021484 0s1.13480448.011 1.96484378.36719c.79889772.34282 1.36536982.86176 1.36914062.86524.0000125.00001.00391.004.00391.004l9.3671868 9.18945s.564354.59582.837891 1.20899c.220779.49491.234375 1.40039.234375 1.40039a1.0584391 1.0584391 0 0 0-.002.0449v40.74609c0 2.41592-1.910258 4.32813-4.3261717 4.32813H-29.632812c-2.415914 0-4.326172-1.91209-4.326172-4.32813v-49.49804c0-2.41603 1.910258-4.32813 4.326172-4.32813z" color="#000" font-family="sans-serif" overflow="visible" paint-order="markers fill stroke" style="line-height:normal;font-variant-ligatures:normal;font-variant-position:normal;font-variant-caps:normal;font-variant-numeric:normal;font-variant-alternates:normal;font-feature-settings:normal;text-indent:0;text-align:start;text-decoration-line:none;text-decoration-style:solid;text-decoration-color:#000000;text-transform:none;text-orientation:mixed;white-space:normal;shape-padding:0;isolation:auto;mix-blend-mode:normal;solid-color:#000000;solid-opacity:1"/>
    </g>
    <g>
        <!-- @see https://developer.mozilla.org/en-US/docs/Web/SVG/Element/text -->
        <style>
            .ext {
                font: 35px sanserif;
                fill: $$COLOR;
            }
        </style>
        <text x="4" y="68" class="ext">$$EXTENSION</text>
    </g>
</svg>
